<svg xmlns="http://www.w3.org/2000/svg" viewBox="0 0 192 192" width="192" height="192">
  <!-- Background with gradient -->
  <defs>
    <radialGradient id="bg" cx="50%" cy="30%" r="70%">
      <stop offset="0%" stop-color="#3b82f6"/>
      <stop offset="100%" stop-color="#1e40af"/>
    </radialGradient>
  </defs>
  
  <circle cx="96" cy="96" r="90" fill="url(#bg)" stroke="#1e40af" stroke-width="4"/>
  
  <!-- Main synthesizer waveform -->
  <path d="M20 96h12l12-36 12 60 12-48 12 24 12-12 12 36 12-24 12 12h36" 
        stroke="white" 
        stroke-width="6" 
        fill="none" 
        stroke-linecap="round" 
        stroke-linejoin="round"/>
  
  <!-- Secondary waveform for depth -->
  <path d="M20 96h12l12-20 12 32 12-26 12 14 12-8 12 20 12-14 12 8h36" 
        stroke="white" 
        stroke-width="3" 
        fill="none" 
        stroke-linecap="round" 
        stroke-linejoin="round"
        opacity="0.5"/>
  
  <!-- Audio boundary lines -->
  <line x1="12" y1="156" x2="180" y2="156" stroke="white" stroke-width="3" opacity="0.7"/>
  <line x1="12" y1="36" x2="180" y2="36" stroke="white" stroke-width="3" opacity="0.7"/>
  
  <!-- Musical note accents -->
  <circle cx="156" cy="60" r="8" fill="white"/>
  <path d="M156 52v24" stroke="white" stroke-width="3"/>
  <path d="M156 52l12-4v8l-12 4" fill="white"/>
  
  <circle cx="36" cy="132" r="6" fill="white" opacity="0.8"/>
  <path d="M36 126v18" stroke="white" stroke-width="2"/>
</svg>
